G04*
G04 #@! TF.GenerationSoftware,Altium Limited,Altium Designer,22.0.2 (36)*
G04*
G04 Layer_Color=65535*
%FSLAX25Y25*%
%MOIN*%
G70*
G04*
G04 #@! TF.SameCoordinates,3FE311A2-DF91-43EC-BEA0-AB145DDAB98B*
G04*
G04*
G04 #@! TF.FilePolarity,Positive*
G04*
G01*
G75*
%ADD10C,0.01000*%
%ADD11C,0.00500*%
%ADD12C,0.00787*%
D10*
X256522Y125343D02*
X256501Y126345D01*
X256437Y127346D01*
X256331Y128343D01*
X256182Y129335D01*
X255992Y130319D01*
X255760Y131295D01*
X255487Y132260D01*
X255173Y133212D01*
X254819Y134150D01*
X254425Y135073D01*
X253993Y135977D01*
X253522Y136863D01*
X253015Y137728D01*
X252471Y138570D01*
X251892Y139389D01*
X251279Y140182D01*
X250633Y140949D01*
X249954Y141688D01*
X249245Y142397D01*
X248506Y143075D01*
X247740Y143721D01*
X246947Y144335D01*
X246128Y144914D01*
X245285Y145457D01*
X244420Y145965D01*
X243535Y146435D01*
X242630Y146868D01*
X241708Y147261D01*
X240770Y147615D01*
X239817Y147929D01*
X238852Y148203D01*
X237877Y148434D01*
X236892Y148625D01*
X235900Y148773D01*
X234903Y148880D01*
X233903Y148943D01*
X232900Y148965D01*
X231897Y148943D01*
X230897Y148880D01*
X229900Y148773D01*
X228908Y148625D01*
X227923Y148434D01*
X226948Y148203D01*
X225983Y147929D01*
X225031Y147615D01*
X224092Y147261D01*
X223170Y146868D01*
X222265Y146435D01*
X221380Y145965D01*
X220515Y145457D01*
X219672Y144914D01*
X218854Y144335D01*
X218060Y143721D01*
X217294Y143075D01*
X216555Y142397D01*
X215846Y141688D01*
X215168Y140949D01*
X214521Y140182D01*
X213908Y139389D01*
X213329Y138570D01*
X212785Y137728D01*
X212278Y136863D01*
X211807Y135977D01*
X211375Y135073D01*
X210981Y134150D01*
X210627Y133212D01*
X210313Y132260D01*
X210040Y131295D01*
X209808Y130319D01*
X209618Y129335D01*
X209469Y128343D01*
X209363Y127346D01*
X209299Y126345D01*
X209278Y125343D01*
X209299Y124340D01*
X209363Y123339D01*
X209469Y122342D01*
X209618Y121351D01*
X209808Y120366D01*
X210040Y119390D01*
X210313Y118426D01*
X210627Y117473D01*
X210981Y116535D01*
X211375Y115613D01*
X211807Y114708D01*
X212278Y113822D01*
X212785Y112957D01*
X213329Y112115D01*
X213908Y111296D01*
X214521Y110503D01*
X215168Y109736D01*
X215846Y108998D01*
X216555Y108289D01*
X217294Y107610D01*
X218060Y106964D01*
X218854Y106351D01*
X219672Y105772D01*
X220515Y105228D01*
X221380Y104720D01*
X222265Y104250D01*
X223170Y103817D01*
X224093Y103424D01*
X225031Y103070D01*
X225983Y102756D01*
X226948Y102483D01*
X227923Y102251D01*
X228908Y102060D01*
X229900Y101912D01*
X230897Y101806D01*
X231898Y101742D01*
X232900Y101721D01*
X233903Y101742D01*
X234903Y101806D01*
X235900Y101912D01*
X236892Y102060D01*
X237877Y102251D01*
X238852Y102483D01*
X239817Y102756D01*
X240770Y103070D01*
X241708Y103424D01*
X242630Y103818D01*
X243535Y104250D01*
X244421Y104720D01*
X245285Y105228D01*
X246128Y105772D01*
X246947Y106351D01*
X247740Y106964D01*
X248507Y107610D01*
X249245Y108289D01*
X249954Y108998D01*
X250633Y109736D01*
X251279Y110503D01*
X251892Y111296D01*
X252471Y112115D01*
X253015Y112958D01*
X253522Y113822D01*
X253993Y114708D01*
X254425Y115613D01*
X254819Y116535D01*
X255173Y117473D01*
X255487Y118426D01*
X255760Y119390D01*
X255992Y120366D01*
X256182Y121351D01*
X256331Y122342D01*
X256437Y123339D01*
X256501Y124340D01*
X256522Y125343D01*
X243372Y102215D02*
Y96216D01*
X247370D01*
X253368Y101215D02*
X252369Y102215D01*
X250369D01*
X249370Y101215D01*
Y100215D01*
X250369Y99216D01*
X252369D01*
X253368Y98216D01*
Y97216D01*
X252369Y96216D01*
X250369D01*
X249370Y97216D01*
X255368Y96216D02*
X257367D01*
X256367D01*
Y102215D01*
X255368Y101215D01*
X216200Y97699D02*
X215201Y98699D01*
X213201D01*
X212202Y97699D01*
Y96700D01*
X213201Y95700D01*
X215201D01*
X216200Y94700D01*
Y93701D01*
X215201Y92701D01*
X213201D01*
X212202Y93701D01*
X222198Y92701D02*
X218200D01*
X222198Y96700D01*
Y97699D01*
X221199Y98699D01*
X219199D01*
X218200Y97699D01*
X268502Y53501D02*
Y59499D01*
X271501D01*
X272500Y58499D01*
Y56500D01*
X271501Y55500D01*
X268502D01*
X270501D02*
X272500Y53501D01*
X278498D02*
X274500D01*
X278498Y57500D01*
Y58499D01*
X277499Y59499D01*
X275499D01*
X274500Y58499D01*
X269200Y228300D02*
Y232299D01*
X271199Y234298D01*
X273199Y232299D01*
Y228300D01*
Y231299D01*
X269200D01*
D11*
X371405Y44216D02*
X372386Y44264D01*
X373356Y44408D01*
X374308Y44646D01*
X375232Y44977D01*
X376119Y45397D01*
X376961Y45901D01*
X377749Y46486D01*
X378477Y47145D01*
X379135Y47872D01*
X379720Y48660D01*
X380225Y49502D01*
X380644Y50389D01*
X380975Y51313D01*
X381213Y52265D01*
X381357Y53236D01*
X381405Y54216D01*
Y224216D02*
X381357Y225196D01*
X381213Y226167D01*
X380975Y227118D01*
X380644Y228043D01*
X380225Y228930D01*
X379720Y229771D01*
X379135Y230560D01*
X378477Y231287D01*
X377749Y231946D01*
X376961Y232530D01*
X376119Y233035D01*
X375232Y233454D01*
X374308Y233785D01*
X373356Y234023D01*
X372386Y234168D01*
X371405Y234216D01*
X281405Y54216D02*
X281453Y53236D01*
X281598Y52265D01*
X281836Y51313D01*
X282167Y50389D01*
X282586Y49502D01*
X283091Y48660D01*
X283675Y47872D01*
X284334Y47145D01*
X285062Y46486D01*
X285850Y45901D01*
X286691Y45397D01*
X287579Y44977D01*
X288503Y44646D01*
X289455Y44408D01*
X290425Y44264D01*
X291405Y44216D01*
Y234216D02*
X290425Y234168D01*
X289455Y234023D01*
X288503Y233785D01*
X287579Y233454D01*
X286691Y233035D01*
X285850Y232530D01*
X285062Y231946D01*
X284334Y231287D01*
X283675Y230560D01*
X283091Y229771D01*
X282586Y228930D01*
X282167Y228043D01*
X281836Y227118D01*
X281598Y226167D01*
X281453Y225196D01*
X281405Y224216D01*
X291405Y44216D02*
X371405D01*
X381405Y54216D02*
Y224216D01*
X291405Y234215D02*
X371405D01*
X281405Y54216D02*
Y224216D01*
D12*
X386169Y209216D02*
X385382D01*
X386169D01*
X277429D02*
X276642D01*
X277429D01*
X265451Y55725D02*
Y58875D01*
X259349Y55725D02*
Y58875D01*
X390945Y58465D02*
X397638D01*
X388976Y65945D02*
X390945Y67520D01*
X388976Y60040D02*
X390945Y58465D01*
Y67520D02*
X397638D01*
X388976Y60040D02*
Y65945D01*
X412992Y58465D02*
Y67520D01*
X405512Y58465D02*
X412992D01*
X405512Y67520D02*
X412992D01*
X390945Y113583D02*
X397638D01*
X388976Y121063D02*
X390945Y122638D01*
X388976Y115157D02*
X390945Y113583D01*
Y122638D02*
X397638D01*
X388976Y115157D02*
Y121063D01*
X412992Y113583D02*
Y122638D01*
X405512Y113583D02*
X412992D01*
X405512Y122638D02*
X412992D01*
X396669Y136909D02*
X399818D01*
X396669Y130807D02*
X399818D01*
X397400Y109350D02*
X400550D01*
X397400Y103248D02*
X400550D01*
X390945Y141142D02*
X397638D01*
X388976Y148622D02*
X390945Y150197D01*
X388976Y142717D02*
X390945Y141142D01*
Y150197D02*
X397638D01*
X388976Y142717D02*
Y148622D01*
X412992Y141142D02*
Y150197D01*
X405512Y141142D02*
X412992D01*
X405512Y150197D02*
X412992D01*
X390945Y86024D02*
X397638D01*
X388976Y93504D02*
X390945Y95079D01*
X388976Y87598D02*
X390945Y86024D01*
Y95079D02*
X397638D01*
X388976Y87598D02*
Y93504D01*
X412992Y86024D02*
Y95079D01*
X405512Y86024D02*
X412992D01*
X405512Y95079D02*
X412992D01*
X396063Y81791D02*
X399213D01*
X396063Y75689D02*
X399213D01*
M02*
