G04*
G04 #@! TF.GenerationSoftware,Altium Limited,Altium Designer,22.0.2 (36)*
G04*
G04 Layer_Physical_Order=2*
G04 Layer_Color=16711680*
%FSLAX25Y25*%
%MOIN*%
G70*
G04*
G04 #@! TF.SameCoordinates,3FE311A2-DF91-43EC-BEA0-AB145DDAB98B*
G04*
G04*
G04 #@! TF.FilePolarity,Positive*
G04*
G01*
G75*
%ADD28R,0.06890X0.05512*%
%ADD30R,0.05512X0.06890*%
%ADD31C,0.01500*%
%ADD32C,0.07874*%
%ADD33C,0.04921*%
%ADD34C,0.06000*%
%ADD35C,0.13780*%
%ADD36R,0.05394X0.05394*%
%ADD37C,0.05394*%
%ADD38R,0.06200X0.06200*%
%ADD39C,0.06693*%
%ADD40C,0.12598*%
%ADD41C,0.07598*%
%ADD42R,0.07598X0.07598*%
%ADD43C,0.03937*%
D28*
X248401Y146909D02*
D03*
Y135099D02*
D03*
D30*
X312906Y146516D02*
D03*
X301095D02*
D03*
X337732D02*
D03*
X325921D02*
D03*
X328300Y62992D02*
D03*
X340111D02*
D03*
D31*
X268431Y81474D02*
X284147D01*
X286405Y79216D01*
X313600D01*
X337732Y145827D02*
X339738Y143821D01*
X348905D01*
X361800Y130926D01*
X337732Y145827D02*
Y146516D01*
X361800Y87598D02*
Y130926D01*
X355675Y81474D02*
X361800Y87598D01*
X343234Y81474D02*
X355675D01*
X401098Y45198D02*
X405512Y49612D01*
X367526Y45198D02*
X401098D01*
X349732Y62992D02*
X367526Y45198D01*
X340111Y62992D02*
X349732D01*
X318500Y62700D02*
X328008D01*
X328300Y62992D01*
X311984Y69216D02*
X318500Y62700D01*
X286405Y69216D02*
X311984D01*
X280490Y63300D02*
X286405Y69216D01*
X231800Y63300D02*
X280490D01*
X221900Y53400D02*
X231800Y63300D01*
X301095Y146516D02*
Y157095D01*
X305800Y161800D01*
X246512Y81474D02*
X268431D01*
X239711Y88274D02*
X246512Y81474D01*
X390510Y209110D02*
X398690D01*
X380615Y199216D02*
X390510Y209110D01*
X376405Y199216D02*
X380615D01*
X337732Y146516D02*
Y189868D01*
X305800Y221800D02*
X337732Y189868D01*
X286405Y209215D02*
X312906Y182715D01*
Y146516D02*
Y182715D01*
X248401Y146909D02*
X264099D01*
X286405Y169216D01*
X376405Y189216D02*
X386300Y199110D01*
X398690D01*
X304496Y129899D02*
X343234D01*
X301095Y133300D02*
X304496Y129899D01*
X301095Y133300D02*
Y146516D01*
X312906D02*
X325921D01*
X216089Y72526D02*
X239711D01*
X315858Y81474D02*
X343234D01*
X313600Y79216D02*
X315858Y81474D01*
X216089Y88274D02*
X239711D01*
X240686Y135099D02*
X248401D01*
X240600Y135185D02*
X240686Y135099D01*
X232900Y135185D02*
X240600D01*
D32*
X268431Y129899D02*
D03*
X343234D02*
D03*
Y81474D02*
D03*
X268431D02*
D03*
D33*
X239711Y88274D02*
D03*
X216089D02*
D03*
X239711Y72526D02*
D03*
X216089D02*
D03*
X221900Y53400D02*
D03*
X229400D02*
D03*
X237400D02*
D03*
D34*
X232900Y115500D02*
D03*
Y135185D02*
D03*
D35*
X353300Y163721D02*
D03*
Y224500D02*
D03*
X329400Y212800D02*
D03*
D36*
X398690Y229110D02*
D03*
D37*
Y219110D02*
D03*
Y209110D02*
D03*
Y199110D02*
D03*
Y189610D02*
D03*
Y179110D02*
D03*
Y169110D02*
D03*
Y159110D02*
D03*
D38*
X214800Y163800D02*
D03*
Y221800D02*
D03*
X305800Y161800D02*
D03*
Y221800D02*
D03*
Y177800D02*
D03*
Y205800D02*
D03*
D39*
X245400Y53400D02*
D03*
X213900D02*
D03*
D40*
X291405Y54216D02*
D03*
X371405D02*
D03*
Y224216D02*
D03*
X291405D02*
D03*
D41*
X376405Y69216D02*
D03*
Y79216D02*
D03*
Y89215D02*
D03*
Y99216D02*
D03*
Y109216D02*
D03*
Y119216D02*
D03*
Y129216D02*
D03*
Y139216D02*
D03*
Y149216D02*
D03*
Y159216D02*
D03*
Y169216D02*
D03*
Y179216D02*
D03*
Y189216D02*
D03*
Y199216D02*
D03*
X286405Y69216D02*
D03*
Y79216D02*
D03*
Y89215D02*
D03*
Y99216D02*
D03*
Y109216D02*
D03*
Y119216D02*
D03*
Y129216D02*
D03*
Y139216D02*
D03*
Y149216D02*
D03*
Y159216D02*
D03*
Y169216D02*
D03*
Y179216D02*
D03*
Y189216D02*
D03*
Y199216D02*
D03*
D42*
X376405Y209215D02*
D03*
X286405D02*
D03*
D43*
X405512Y49612D02*
D03*
M02*
