G04*
G04 #@! TF.GenerationSoftware,Altium Limited,Altium Designer,22.0.2 (36)*
G04*
G04 Layer_Color=16711935*
%FSLAX25Y25*%
%MOIN*%
G70*
G04*
G04 #@! TF.SameCoordinates,3FE311A2-DF91-43EC-BEA0-AB145DDAB98B*
G04*
G04*
G04 #@! TF.FilePolarity,Negative*
G04*
G01*
G75*
%ADD13R,0.07690X0.06312*%
%ADD15R,0.06312X0.07690*%
%ADD16C,0.08674*%
%ADD17C,0.05721*%
%ADD18C,0.06800*%
%ADD19C,0.14580*%
%ADD20R,0.06194X0.06194*%
%ADD21C,0.06194*%
%ADD22R,0.07000X0.07000*%
%ADD23C,0.07493*%
%ADD24C,0.13398*%
%ADD25C,0.08398*%
%ADD26R,0.08398X0.08398*%
%ADD27C,0.04737*%
D13*
X248401Y146909D02*
D03*
Y135099D02*
D03*
D15*
X312906Y146516D02*
D03*
X301095D02*
D03*
X337732D02*
D03*
X325921D02*
D03*
X328300Y62992D02*
D03*
X340111D02*
D03*
D16*
X268431Y129899D02*
D03*
X343234D02*
D03*
Y81474D02*
D03*
X268431D02*
D03*
D17*
X239711Y88274D02*
D03*
X216089D02*
D03*
X239711Y72526D02*
D03*
X216089D02*
D03*
X221900Y53400D02*
D03*
X229400D02*
D03*
X237400D02*
D03*
D18*
X232900Y115500D02*
D03*
Y135185D02*
D03*
D19*
X353300Y163721D02*
D03*
Y224500D02*
D03*
X329400Y212800D02*
D03*
D20*
X398690Y229110D02*
D03*
D21*
Y219110D02*
D03*
Y209110D02*
D03*
Y199110D02*
D03*
Y189610D02*
D03*
Y179110D02*
D03*
Y169110D02*
D03*
Y159110D02*
D03*
D22*
X214800Y163800D02*
D03*
Y221800D02*
D03*
X305800Y161800D02*
D03*
Y221800D02*
D03*
Y177800D02*
D03*
Y205800D02*
D03*
D23*
X245400Y53400D02*
D03*
X213900D02*
D03*
D24*
X291405Y54216D02*
D03*
X371405D02*
D03*
Y224216D02*
D03*
X291405D02*
D03*
D25*
X376405Y69216D02*
D03*
Y79216D02*
D03*
Y89215D02*
D03*
Y99216D02*
D03*
Y109216D02*
D03*
Y119216D02*
D03*
Y129216D02*
D03*
Y139216D02*
D03*
Y149216D02*
D03*
Y159216D02*
D03*
Y169216D02*
D03*
Y179216D02*
D03*
Y189216D02*
D03*
Y199216D02*
D03*
X286405Y69216D02*
D03*
Y79216D02*
D03*
Y89215D02*
D03*
Y99216D02*
D03*
Y109216D02*
D03*
Y119216D02*
D03*
Y129216D02*
D03*
Y139216D02*
D03*
Y149216D02*
D03*
Y159216D02*
D03*
Y169216D02*
D03*
Y179216D02*
D03*
Y189216D02*
D03*
Y199216D02*
D03*
D26*
X376405Y209215D02*
D03*
X286405D02*
D03*
D27*
X405512Y49612D02*
D03*
M02*
