M48
;Layer_Color=9474304
;FILE_FORMAT=2:4
INCH,TZ
;TYPE=PLATED
T1F00S00C0.0276
T2F00S00C0.0300
T3F00S00C0.0315
T4F00S00C0.0350
T5F00S00C0.0394
T6F00S00C0.0402
T7F00S00C0.0512
T8F00S00C0.0591
T9F00S00C0.1260
;TYPE=NON_PLATED
T10F00S00C0.1260
%
T01
X40551Y4961
T02
X21609Y7253
Y8827
X23971
Y7253
T03
X22190Y5340
X22940
X23740
T04
X37641Y6922
Y7922
Y8922
Y9922
Y10922
Y11922
Y12922
Y13922
Y14922
Y15922
Y16922
Y17922
X30580Y17780
Y16180
X28641Y15922
Y14922
Y13922
Y12922
Y11922
Y10922
Y9922
Y8922
Y7922
Y6922
Y16922
Y17922
X21480Y16380
Y22180
X28641Y20922
Y19922
Y18922
X30580Y20580
Y22180
X37641Y20922
Y19922
Y18922
T05
X23290Y11550
Y13519
T06
X39869Y15911
Y16911
Y17911
Y18961
Y19911
Y20911
Y21911
Y22911
T07
X26843Y8147
Y12990
X34323
Y8147
T08
X21390Y5340
X24540
T09
X35330Y16372
X32940Y21280
X35330Y22450
T10
X37141Y5422
X29141
Y22422
X37141
M30
