G04*
G04 #@! TF.GenerationSoftware,Altium Limited,Altium Designer,22.0.2 (36)*
G04*
G04 Layer_Color=32896*
%FSLAX25Y25*%
%MOIN*%
G70*
G04*
G04 #@! TF.SameCoordinates,3FE311A2-DF91-43EC-BEA0-AB145DDAB98B*
G04*
G04*
G04 #@! TF.FilePolarity,Positive*
G04*
G01*
G75*
%ADD10C,0.01000*%
%ADD12C,0.00787*%
%ADD44C,0.00800*%
%ADD45C,0.00799*%
%ADD46C,0.00394*%
D10*
X233898Y237899D02*
Y232901D01*
X232899Y231901D01*
X230899D01*
X229900Y232901D01*
Y237899D01*
X223902Y231901D02*
X227900D01*
X223902Y235900D01*
Y236899D01*
X224901Y237899D01*
X226901D01*
X227900Y236899D01*
X231399Y70500D02*
X232399Y69500D01*
Y67501D01*
X231399Y66501D01*
X230400D01*
X229400Y67501D01*
Y69500D01*
X228400Y70500D01*
X227401D01*
X226401Y69500D01*
Y67501D01*
X227401Y66501D01*
X226401Y72499D02*
Y74499D01*
Y73499D01*
X232399D01*
X231399Y72499D01*
X271100Y147298D02*
Y142300D01*
X270100Y141300D01*
X268101D01*
X267101Y142300D01*
Y147298D01*
X265102Y146298D02*
X264102Y147298D01*
X262103D01*
X261103Y146298D01*
Y145299D01*
X262103Y144299D01*
X263103D01*
X262103D01*
X261103Y143299D01*
Y142300D01*
X262103Y141300D01*
X264102D01*
X265102Y142300D01*
X332100Y155100D02*
Y161098D01*
X329101D01*
X328101Y160098D01*
Y158099D01*
X329101Y157099D01*
X332100D01*
X330101D02*
X328101Y155100D01*
X326102Y160098D02*
X325102Y161098D01*
X323103D01*
X322103Y160098D01*
Y159099D01*
X323103Y158099D01*
X322103Y157099D01*
Y156100D01*
X323103Y155100D01*
X325102D01*
X326102Y156100D01*
Y157099D01*
X325102Y158099D01*
X326102Y159099D01*
Y160098D01*
X325102Y158099D02*
X323103D01*
X311999Y133910D02*
Y139908D01*
X308999D01*
X308000Y138909D01*
Y136909D01*
X308999Y135910D01*
X311999D01*
X309999D02*
X308000Y133910D01*
X306000Y139908D02*
X302002D01*
Y138909D01*
X306000Y134910D01*
Y133910D01*
X327177Y78690D02*
X321179D01*
Y75691D01*
X322179Y74691D01*
X324178D01*
X325178Y75691D01*
Y78690D01*
Y76690D02*
X327177Y74691D01*
X322179Y72692D02*
X321179Y71692D01*
Y69692D01*
X322179Y68693D01*
X323178D01*
X324178Y69692D01*
Y70692D01*
Y69692D01*
X325178Y68693D01*
X326177D01*
X327177Y69692D01*
Y71692D01*
X326177Y72692D01*
X251800Y154700D02*
Y160698D01*
X248801D01*
X247801Y159698D01*
Y157699D01*
X248801Y156699D01*
X251800D01*
X249801D02*
X247801Y154700D01*
X245802D02*
X243802D01*
X244802D01*
Y160698D01*
X245802Y159698D01*
D12*
X305425Y149567D02*
X308575D01*
X305425Y143465D02*
X308575D01*
X330251Y149567D02*
X333401D01*
X330251Y143465D02*
X333401D01*
X245350Y139429D02*
Y142579D01*
X251452Y139429D02*
Y142579D01*
X332631Y59941D02*
X335780D01*
X332631Y66043D02*
X335780D01*
D44*
X300800Y156800D02*
X310800D01*
Y164300D01*
X300800Y166800D02*
X310800D01*
X300800Y172800D02*
X310800D01*
Y180300D01*
X300800Y172800D02*
Y182800D01*
X310800D01*
X300800Y200800D02*
X310800D01*
Y208300D01*
X300800Y200800D02*
Y210800D01*
X310800D01*
X300800Y216800D02*
X310800D01*
Y224300D01*
X300800Y216800D02*
Y226800D01*
X310800D01*
X300800Y156800D02*
Y166800D01*
X219800Y158800D02*
Y166300D01*
Y216800D02*
Y224300D01*
X209800Y158800D02*
X219800D01*
X209800Y168800D02*
X219800D01*
X209800Y216800D02*
X219800D01*
X209800Y226800D02*
X219800D01*
X209800Y158800D02*
Y168800D01*
Y216800D02*
Y226800D01*
D45*
X310800Y164300D02*
Y166800D01*
Y180300D02*
Y182800D01*
Y208300D02*
Y210800D01*
Y224300D02*
Y226800D01*
X219800Y224300D02*
Y226800D01*
Y166300D02*
Y168800D01*
D46*
X221920Y45920D02*
X236880D01*
M02*
