G04*
G04 #@! TF.GenerationSoftware,Altium Limited,Altium Designer,22.0.2 (36)*
G04*
G04 Layer_Physical_Order=1*
G04 Layer_Color=255*
%FSLAX25Y25*%
%MOIN*%
G70*
G04*
G04 #@! TF.SameCoordinates,3FE311A2-DF91-43EC-BEA0-AB145DDAB98B*
G04*
G04*
G04 #@! TF.FilePolarity,Positive*
G04*
G01*
G75*
%ADD28R,0.06890X0.05512*%
%ADD29R,0.05906X0.05906*%
%ADD30R,0.05512X0.06890*%
%ADD31C,0.01500*%
%ADD32C,0.07874*%
%ADD33C,0.04921*%
%ADD34C,0.06000*%
%ADD35C,0.13780*%
%ADD36R,0.05394X0.05394*%
%ADD37C,0.05394*%
%ADD38R,0.06200X0.06200*%
%ADD39C,0.06693*%
%ADD40C,0.12598*%
%ADD41C,0.07598*%
%ADD42R,0.07598X0.07598*%
%ADD43C,0.03937*%
D28*
X262400Y63206D02*
D03*
Y51395D02*
D03*
D29*
X408465Y62992D02*
D03*
X394685D02*
D03*
X408464Y118110D02*
D03*
X394685D02*
D03*
X408465Y145669D02*
D03*
X394685D02*
D03*
X408465Y90551D02*
D03*
X394685D02*
D03*
D30*
X392338Y133858D02*
D03*
X404149D02*
D03*
X393069Y106299D02*
D03*
X404880D02*
D03*
X391732Y78740D02*
D03*
X403543D02*
D03*
D31*
X405512Y49612D02*
X408465Y52565D01*
Y62992D01*
X343234Y81474D02*
X361716Y62992D01*
X394685D01*
X262399Y63341D02*
X307500Y63800D01*
X249032Y63206D02*
X262399Y63341D01*
X388000Y79400D02*
X391732D01*
X389600Y106200D02*
Y116021D01*
Y106200D02*
X393069D01*
X239711Y72526D02*
X249032Y63206D01*
X307500Y63800D02*
X342916Y99216D01*
X376405D01*
X394685Y90551D02*
X397800Y93666D01*
Y114995D01*
X394685Y118110D02*
X397800Y114995D01*
X381763Y133858D02*
X392338D01*
X376405Y139216D02*
X381763Y133858D01*
X229699Y129899D02*
X268431D01*
X225100Y125300D02*
X229699Y129899D01*
X225100Y57700D02*
Y125300D01*
Y57700D02*
X229400Y53400D01*
X403543Y78740D02*
Y85630D01*
X408465Y90551D01*
X404880Y106299D02*
Y114526D01*
X408464Y118110D01*
X404149Y133858D02*
Y141353D01*
X408465Y145669D01*
X232900Y95085D02*
Y115500D01*
Y95085D02*
X239711Y88274D01*
X249032Y63206D02*
X262400D01*
X384180Y214600D02*
X398690Y229110D01*
X362900Y214600D02*
X384180D01*
X361800Y213500D02*
X362900Y214600D01*
X361800Y184610D02*
Y213500D01*
X286405Y109216D02*
X361800Y184610D01*
X393069Y106200D02*
Y106299D01*
X376405Y129216D02*
X389600Y116021D01*
X391732Y78740D02*
Y79400D01*
X386000Y81400D02*
X388000Y79400D01*
X386000Y81400D02*
Y109621D01*
X376405Y119216D02*
X386000Y109621D01*
X394685Y145669D02*
Y154900D01*
X394400Y155185D02*
X394685Y154900D01*
X394400Y155185D02*
Y214820D01*
X398690Y219110D01*
X255200Y51395D02*
X262400D01*
X251505Y47700D02*
X255200Y51395D01*
X227600Y47700D02*
X251505D01*
X221900Y53400D02*
X227600Y47700D01*
X394685Y140915D02*
Y145669D01*
Y140915D02*
X397100Y138500D01*
Y127115D02*
Y138500D01*
X394685Y124700D02*
X397100Y127115D01*
X394685Y118110D02*
Y124700D01*
X394685Y85515D02*
Y90551D01*
Y85515D02*
X396500Y83700D01*
Y71715D02*
Y83700D01*
X394685Y69900D02*
X396500Y71715D01*
X394685Y62992D02*
Y69900D01*
D32*
X268431Y129899D02*
D03*
X343234D02*
D03*
Y81474D02*
D03*
X268431D02*
D03*
D33*
X239711Y88274D02*
D03*
X216089D02*
D03*
X239711Y72526D02*
D03*
X216089D02*
D03*
X221900Y53400D02*
D03*
X229400D02*
D03*
X237400D02*
D03*
D34*
X232900Y115500D02*
D03*
Y135185D02*
D03*
D35*
X353300Y163721D02*
D03*
Y224500D02*
D03*
X329400Y212800D02*
D03*
D36*
X398690Y229110D02*
D03*
D37*
Y219110D02*
D03*
Y209110D02*
D03*
Y199110D02*
D03*
Y189610D02*
D03*
Y179110D02*
D03*
Y169110D02*
D03*
Y159110D02*
D03*
D38*
X214800Y163800D02*
D03*
Y221800D02*
D03*
X305800Y161800D02*
D03*
Y221800D02*
D03*
Y177800D02*
D03*
Y205800D02*
D03*
D39*
X245400Y53400D02*
D03*
X213900D02*
D03*
D40*
X291405Y54216D02*
D03*
X371405D02*
D03*
Y224216D02*
D03*
X291405D02*
D03*
D41*
X376405Y69216D02*
D03*
Y79216D02*
D03*
Y89215D02*
D03*
Y99216D02*
D03*
Y109216D02*
D03*
Y119216D02*
D03*
Y129216D02*
D03*
Y139216D02*
D03*
Y149216D02*
D03*
Y159216D02*
D03*
Y169216D02*
D03*
Y179216D02*
D03*
Y189216D02*
D03*
Y199216D02*
D03*
X286405Y69216D02*
D03*
Y79216D02*
D03*
Y89215D02*
D03*
Y99216D02*
D03*
Y109216D02*
D03*
Y119216D02*
D03*
Y129216D02*
D03*
Y139216D02*
D03*
Y149216D02*
D03*
Y159216D02*
D03*
Y169216D02*
D03*
Y179216D02*
D03*
Y189216D02*
D03*
Y199216D02*
D03*
D42*
X376405Y209215D02*
D03*
X286405D02*
D03*
D43*
X405512Y49612D02*
D03*
M02*
